# xmcd CD database file
#
# Track frame offsets:
#	150
#	3312
#	15568
#	31125
#	52574
#	78172
#	93148
#	110412
#	134734
#	156664
#	181248
#
# Disc length: 2708 seconds
#
# Revision: 0
# Processed by: cddbd v1.5.2PL0 Copyright (c) Steve Scherf et al.
# Submitted via: CDex 1.51
#
DISCID=770a920b
DTITLE=Nick Pride and The Pimptones - Midnight Feast of Jazz
DYEAR=2011
DGENRE=Jazz
TTITLE0=Pimptroduction
TTITLE1=Come and Get It
TTITLE2=Lay It on The Line (feat. Zoe Giby)
TTITLE3=Gold Leader
TTITLE4=Hug Lorenzo
TTITLE5=Waitin' So Long (feat. Jess Roberts)
TTITLE6=Midnight Feast of Jazz
TTITLE7=Mia Sorella
TTITLE8=Brighter Day (feat Susan Hamilton)
TTITLE9=Hot Doggin'
TTITLE10=Light of The Moon
EXTD=YEAR: 2011
EXTT0=
EXTT1=
EXTT2=
EXTT3=
EXTT4=
EXTT5=
EXTT6=
EXTT7=
EXTT8=
EXTT9=
EXTT10=
PLAYORDER=
